<svg width="72" height="72" viewBox="0 0 72 72" fill="none" xmlns="http://www.w3.org/2000/svg">
<rect width="72" height="72" rx="14" fill="#FEFDE8"/>
<path d="M44 24.3529H48V54H24V24.3529H28V22.2353C28 21.112 28.4214 20.0348 29.1716 19.2405C29.9217 18.4462 30.9391 18 32 18H40C41.0609 18 42.0783 18.4462 42.8284 19.2405C43.5786 20.0348 44 21.112 44 22.2353V24.3529ZM50 24.3529H52C53.0609 24.3529 54.0783 24.7992 54.8284 25.5934C55.5786 26.3877 56 27.465 56 28.5882V49.7647C56 50.888 55.5786 51.9652 54.8284 52.7595C54.0783 53.5538 53.0609 54 52 54H50V24.3529ZM22 24.3529V54H20C18.9391 54 17.9217 53.5538 17.1716 52.7595C16.4214 51.9652 16 50.888 16 49.7647V28.5882C16 26.2588 17.8 24.3529 20 24.3529H22ZM32 22.2353V24.3529H40V22.2353H32Z" fill="#FBDA14"/>
</svg>
