<svg width="72" height="72" viewBox="0 0 72 72" fill="none" xmlns="http://www.w3.org/2000/svg">
<rect width="72" height="72" rx="14" fill="#FEFDE8"/>
<path fill-rule="evenodd" clip-rule="evenodd" d="M44 22H20C18.9391 22 17.9217 22.3687 17.1716 23.0251C16.4214 23.6815 16 24.5717 16 25.5V46.5C16 47.4283 16.4214 48.3185 17.1716 48.9749C17.9217 49.6313 18.9391 50 20 50H44C44 49.5359 44.2107 49.0907 44.5858 48.7626C44.9609 48.4344 45.4696 48.25 46 48.25C46.5304 48.25 47.0391 48.4344 47.4142 48.7626C47.7893 49.0907 48 49.5359 48 50H52C53.0609 50 54.0783 49.6313 54.8284 48.9749C55.5786 48.3185 56 47.4283 56 46.5V25.5C56 24.5717 55.5786 23.6815 54.8284 23.0251C54.0783 22.3687 53.0609 22 52 22H48C48 22.4641 47.7893 22.9092 47.4142 23.2374C47.0391 23.5656 46.5304 23.75 46 23.75C45.4696 23.75 44.9609 23.5656 44.5858 23.2374C44.2107 22.9092 44 22.4641 44 22ZM46 30.7518C46.5304 30.7518 47.0391 30.5674 47.4142 30.2392C47.7893 29.911 48 29.4659 48 29.0018V29C48 28.5359 47.7893 28.0908 47.4142 27.7626C47.0391 27.4344 46.5304 27.25 46 27.25C45.4696 27.25 44.9609 27.4344 44.5858 27.7626C44.2107 28.0908 44 28.5359 44 29V29.0018C44 29.4659 44.2107 29.911 44.5858 30.2392C44.9609 30.5674 45.4696 30.7518 46 30.7518ZM48 36.0018C48 36.4659 47.7893 36.911 47.4142 37.2392C47.0391 37.5674 46.5304 37.7518 46 37.7518C45.4696 37.7518 44.9609 37.5674 44.5858 37.2392C44.2107 36.911 44 36.4659 44 36.0018V36C44 35.5359 44.2107 35.0908 44.5858 34.7626C44.9609 34.4344 45.4696 34.25 46 34.25C46.5304 34.25 47.0391 34.4344 47.4142 34.7626C47.7893 35.0908 48 35.5359 48 36V36.0018ZM46 44.7517C46.5304 44.7517 47.0391 44.5674 47.4142 44.2392C47.7893 43.911 48 43.4659 48 43.0017C48 42.5376 47.7893 42.0908 47.4142 41.7626C47.0391 41.4344 46.5304 41.25 46 41.25C45.4696 41.25 44.9609 41.4344 44.5858 41.7626C44.2107 42.0908 44 42.5359 44 43C44 43.4641 44.2107 43.911 44.5858 44.2392C44.9609 44.5674 45.4696 44.7517 46 44.7517ZM24 34.25C23.4696 34.25 22.9609 34.4344 22.5858 34.7626C22.2107 35.0908 22 35.5359 22 36C22 36.4641 22.2107 36.9092 22.5858 37.2374C22.9609 37.5656 23.4696 37.75 24 37.75H36C36.5304 37.75 37.0391 37.5656 37.4142 37.2374C37.7893 36.9092 38 36.4641 38 36C38 35.5359 37.7893 35.0908 37.4142 34.7626C37.0391 34.4344 36.5304 34.25 36 34.25H24ZM24 41.25C23.4696 41.25 22.9609 41.4344 22.5858 41.7626C22.2107 42.0908 22 42.5359 22 43C22 43.4641 22.2107 43.9093 22.5858 44.2374C22.9609 44.5656 23.4696 44.75 24 44.75H30C30.5304 44.75 31.0391 44.5656 31.4142 44.2374C31.7893 43.9093 32 43.4641 32 43C32 42.5359 31.7893 42.0908 31.4142 41.7626C31.0391 41.4344 30.5304 41.25 30 41.25H24Z" fill="#FBDA14"/>
</svg>
